/* XPM */
static char * \\wsl$\Ubuntu\home\test\felixcoinbeta\share\pixmaps\bitcoin16_xpm[] = {
"16 16 233 2",
"  	c #51493B",
". 	c #584F41",
"+ 	c #5C5342",
"@ 	c #5B5346",
"# 	c #6D6860",
"$ 	c #5C5953",
"% 	c #616161",
"& 	c #717171",
"* 	c #73767C",
"= 	c #A4A5A7",
"- 	c #BFC1C6",
"; 	c #D4D7E0",
"> 	c #FFFFFF",
", 	c #4F4639",
"' 	c #483F33",
") 	c #4A4137",
"! 	c #443E33",
"~ 	c #36312C",
"{ 	c #504D47",
"] 	c #54544D",
"^ 	c #6A6C6B",
"/ 	c #6F6F6E",
"( 	c #7B7B7B",
"_ 	c #9C9D9F",
": 	c #C3C0C3",
"< 	c #BCCCE1",
"[ 	c #3F372C",
"} 	c #473D32",
"| 	c #40392E",
"1 	c #413A32",
"2 	c #3B372F",
"3 	c #22211F",
"4 	c #272525",
"5 	c #2E2B2A",
"6 	c #302D2F",
"7 	c #706A66",
"8 	c #50525B",
"9 	c #B7B7BA",
"0 	c #7492B1",
"a 	c #5B513F",
"b 	c #584D3D",
"c 	c #564D41",
"d 	c #474136",
"e 	c #413D36",
"f 	c #3F3E39",
"g 	c #4C4841",
"h 	c #191E20",
"i 	c #0E1922",
"j 	c #3F3C41",
"k 	c #656160",
"l 	c #444F62",
"m 	c #60748D",
"n 	c #F9FEFF",
"o 	c #453D30",
"p 	c #53493D",
"q 	c #363129",
"r 	c #49443D",
"s 	c #565249",
"t 	c #6A655B",
"u 	c #42403E",
"v 	c #7A7268",
"w 	c #92918E",
"x 	c #616164",
"y 	c #35393E",
"z 	c #374251",
"A 	c #616776",
"B 	c #B4C2D5",
"C 	c #615B51",
"D 	c #2F2A24",
"E 	c #23211F",
"F 	c #2B2A27",
"G 	c #2A2825",
"H 	c #4B4A45",
"I 	c #56524C",
"J 	c #414342",
"K 	c #434748",
"L 	c #6F6D6C",
"M 	c #756E6A",
"N 	c #3D434A",
"O 	c #596676",
"P 	c #77889A",
"Q 	c #E8F4FE",
"R 	c #676259",
"S 	c #29241F",
"T 	c #262421",
"U 	c #2C2A26",
"V 	c #46413A",
"W 	c #3E3A34",
"X 	c #464643",
"Y 	c #2D2E2D",
"Z 	c #333434",
"` 	c #6B675F",
" .	c #877D73",
"..	c #5B5855",
"+.	c #ABABAA",
"@.	c #8B8D90",
"#.	c #525E6A",
"$.	c #EBECEC",
"%.	c #4B3F32",
"&.	c #5C5852",
"*.	c #26221E",
"=.	c #474038",
"-.	c #3F3933",
";.	c #423D36",
">.	c #59554B",
",.	c #514C44",
"'.	c #4A443E",
").	c #6C635A",
"!.	c #726A61",
"~.	c #403C38",
"{.	c #ADA39C",
"].	c #B0B0AD",
"^.	c #A2A39E",
"/.	c #A5A197",
"(.	c #443B31",
"_.	c #595248",
":.	c #574D41",
"<.	c #4A4239",
"[.	c #5F5548",
"}.	c #7B7365",
"|.	c #7A6E5D",
"1.	c #665B4F",
"2.	c #968671",
"3.	c #665A50",
"4.	c #312925",
"5.	c #635348",
"6.	c #D2C3B3",
"7.	c #645F64",
"8.	c #FEF8EC",
"9.	c #BDB5A0",
"0.	c #605549",
"a.	c #605243",
"b.	c #8F8572",
"c.	c #4C4137",
"d.	c #6A6054",
"e.	c #6C6152",
"f.	c #6B6050",
"g.	c #857967",
"h.	c #897B6B",
"i.	c #4C433A",
"j.	c #706051",
"k.	c #8D7B69",
"l.	c #DFD0C4",
"m.	c #18070C",
"n.	c #E2D0B4",
"o.	c #8E806A",
"p.	c #7A6D5B",
"q.	c #615545",
"r.	c #938876",
"s.	c #77695A",
"t.	c #897C69",
"u.	c #9F927F",
"v.	c #C9BAA2",
"w.	c #706457",
"x.	c #887764",
"y.	c #968776",
"z.	c #B7A692",
"A.	c #5B4D4B",
"B.	c #947D73",
"C.	c #FFFFF3",
"D.	c #FEFFFE",
"E.	c #A6987D",
"F.	c #8F7F6C",
"G.	c #9B8E7B",
"H.	c #9B8E7C",
"I.	c #A59785",
"J.	c #998B77",
"K.	c #8F7D6B",
"L.	c #7F7362",
"M.	c #A79C91",
"N.	c #796A56",
"O.	c #8C7F6C",
"P.	c #776962",
"Q.	c #443031",
"R.	c #684D3F",
"S.	c #D4D9D1",
"T.	c #A3927C",
"U.	c #B6A58B",
"V.	c #9B8875",
"W.	c #B0A18A",
"X.	c #A79A86",
"Y.	c #7E7167",
"Z.	c #9E9281",
"`.	c #9A8D80",
" +	c #7D6B59",
".+	c #65544B",
"++	c #746155",
"@+	c #6B574B",
"#+	c #BBA080",
"$+	c #8D958D",
"%+	c #B7A78F",
"&+	c #B4A38B",
"*+	c #B5A58C",
"=+	c #BEB096",
"-+	c #827260",
";+	c #776552",
">+	c #8D7D6C",
",+	c #948774",
"'+	c #8F8372",
")+	c #968874",
"!+	c #887763",
"~+	c #93826B",
"{+	c #947C65",
"]+	c #FFFFE6",
"^+	c #BCC4C5",
"/+	c #B8A68E",
"(+	c #BEAC93",
"_+	c #D2C4A7",
":+	c #BBAA8F",
"<+	c #958369",
"[+	c #A69A86",
"}+	c #A0947B",
"|+	c #A89A83",
"1+	c #6F5C4A",
"2+	c #A99C84",
"3+	c #AC9C82",
"4+	c #C1AC8E",
"5+	c #F9EEC1",
"6+	c #F8F7F4",
"7+	c #BAA792",
"8+	c #D6C7AE",
"9+	c #DBCAB2",
"0+	c #D5C7AC",
"a+	c #EDE4CE",
"b+	c #BDAF97",
"c+	c #B3A58C",
"d+	c #C0B39D",
"e+	c #C0B092",
"f+	c #CEBDA3",
"g+	c #CDC2A6",
"h+	c #DBD0BB",
"i+	c #CDC4B1",
"j+	c #FFFFFE",
"  . + @ # $ % & * = - ; > > > > ",
", ' ) ! ~ { ] ^ / ( _ : < > > > ",
"[ } | 1 2 3 4 5 6 7 8 9 0 > > > ",
"a b c d e f g h i j k l m n > > ",
"o p q r s t u v w x y z A B > > ",
"C D E F G H I J K L M N O P Q > ",
"R S T U V W X Y Z `  ...+.@.#.$.",
"%.&.*.=.-.;.>.,.'.).!.~.{.].^./.",
"(._.:.<.[.}.|.1.2.3.4.5.6.7.8.9.",
"0.a.b.c.d.e.f.g.h.i.j.k.l.m.n.> ",
"o.p.q.r.s.t.u.v.w.x.y.z.A.B.C.D.",
"E.F.G.H.I.J.K.L.M.N.O.P.Q.R.> S.",
"T.U.V.W.X.Y.Z.`.o. +.+++@+#+> $+",
"%+&+*+=+-+;+>+,+'+)+!+~+{+]+> ^+",
"/+(+_+:+<+[+}+|+1+2+3+4+5+6+> > ",
"7+8+9+0+a+b+c+d+e+f+g+h+i+j+> > "};
