/* XPM */
static char * \\wsl$\Ubuntu\home\test\felixcoinbeta\share\pixmaps\bitcoin32_xpm[] = {
"32 32 900 2",
"  	c #3C382E",
". 	c #5B5143",
"+ 	c #5E5545",
"@ 	c #625747",
"# 	c #4F483C",
"$ 	c #6A604E",
"% 	c #5B5244",
"& 	c #72695C",
"* 	c #625D54",
"= 	c #716D64",
"- 	c #5C564F",
"; 	c #696862",
"> 	c #55544F",
", 	c #818281",
"' 	c #79797A",
") 	c #6C6C67",
"! 	c #929498",
"~ 	c #676B71",
"{ 	c #9C9FA3",
"] 	c #CECFD0",
"^ 	c #C4C7CC",
"/ 	c #D4DBE2",
"( 	c #E9EAF0",
"_ 	c #DFE6F0",
": 	c #FFFFFF",
"< 	c #665A47",
"[ 	c #494235",
"} 	c #494136",
"| 	c #524A3C",
"1 	c #5C5140",
"2 	c #534A3C",
"3 	c #4E4539",
"4 	c #4E483E",
"5 	c #5D5952",
"6 	c #666059",
"7 	c #726F67",
"8 	c #3A3937",
"9 	c #686869",
"0 	c #454644",
"a 	c #6A6C6C",
"b 	c #6B6C70",
"c 	c #68696A",
"d 	c #787B7F",
"e 	c #6C6F73",
"f 	c #A3A2A2",
"g 	c #B6B5B3",
"h 	c #9E9DA5",
"i 	c #EAE4E0",
"j 	c #9AA4B5",
"k 	c #DDE8F4",
"l 	c #595040",
"m 	c #4D4436",
"n 	c #534B3D",
"o 	c #483E33",
"p 	c #413B31",
"q 	c #483F34",
"r 	c #464136",
"s 	c #3E3830",
"t 	c #3F3933",
"u 	c #44403A",
"v 	c #58554F",
"w 	c #53524D",
"x 	c #565551",
"y 	c #646562",
"z 	c #5F6263",
"A 	c #787C7E",
"B 	c #4D5056",
"C 	c #706F6E",
"D 	c #757778",
"E 	c #9A9B9C",
"F 	c #969A9D",
"G 	c #AFADAE",
"H 	c #D5D1CF",
"I 	c #AAABB5",
"J 	c #B0BED4",
"K 	c #453B30",
"L 	c #463B30",
"M 	c #595044",
"N 	c #4F4639",
"O 	c #453F36",
"P 	c #403A33",
"Q 	c #33302B",
"R 	c #423B35",
"S 	c #464540",
"T 	c #3F3E39",
"U 	c #535149",
"V 	c #65635E",
"W 	c #555552",
"X 	c #757573",
"Y 	c #7D7B77",
"Z 	c #565657",
"` 	c #928F8C",
" .	c #898B90",
"..	c #9A999B",
"+.	c #DEDCDA",
"@.	c #9DA1AD",
"#.	c #778EAD",
"$.	c #E5F1FE",
"%.	c #41392E",
"&.	c #433B2D",
"*.	c #453D31",
"=.	c #473D30",
"-.	c #4B4437",
";.	c #433A31",
">.	c #3C352D",
",.	c #3F3931",
"'.	c #3E3A31",
").	c #38332D",
"!.	c #2A2925",
"~.	c #32302D",
"{.	c #30302D",
"].	c #3C3835",
"^.	c #383734",
"/.	c #423E3C",
"(.	c #454442",
"_.	c #3F3C40",
":.	c #7B7873",
"<.	c #7E7A76",
"[.	c #7F7E7D",
"}.	c #5F606A",
"|.	c #D4D1CE",
"1.	c #A2A7B3",
"2.	c #607A98",
"3.	c #C7DAEA",
"4.	c #494233",
"5.	c #40372E",
"6.	c #4E4339",
"7.	c #41382F",
"8.	c #3F3A2F",
"9.	c #534C42",
"0.	c #39332C",
"a.	c #3D3832",
"b.	c #3A3730",
"c.	c #353330",
"d.	c #1C1B1B",
"e.	c #272526",
"f.	c #292628",
"g.	c #2C292A",
"h.	c #282629",
"i.	c #2D2B2D",
"j.	c #323135",
"k.	c #2F2F34",
"l.	c #766F6B",
"m.	c #5D5C60",
"n.	c #484D5A",
"o.	c #B9B4B1",
"p.	c #627184",
"q.	c #5A708C",
"r.	c #A5BDD7",
"s.	c #554A3A",
"t.	c #524939",
"u.	c #5E5544",
"v.	c #554B3C",
"w.	c #5F5549",
"x.	c #655B4E",
"y.	c #574E41",
"z.	c #4D483C",
"A.	c #49453A",
"B.	c #433E36",
"C.	c #3A3832",
"D.	c #30322D",
"E.	c #161517",
"F.	c #232325",
"G.	c #161C21",
"H.	c #151C22",
"I.	c #22242B",
"J.	c #424246",
"K.	c #4F4B4D",
"L.	c #5E5C5D",
"M.	c #4C5057",
"N.	c #8E8C92",
"O.	c #3B5065",
"P.	c #5A6E86",
"Q.	c #869AB0",
"R.	c #E0EDFA",
"S.	c #5C5241",
"T.	c #594F3F",
"U.	c #514838",
"V.	c #514639",
"W.	c #3C362C",
"X.	c #433C34",
"Y.	c #36332B",
"Z.	c #423E38",
"`.	c #3E3A36",
" +	c #4D4B45",
".+	c #4D4942",
"++	c #6F6B60",
"@+	c #6D6759",
"#+	c #544F47",
"$+	c #1C2022",
"%+	c #10191E",
"&+	c #3E4B52",
"*+	c #3A393C",
"=+	c #4A474E",
"-+	c #5E5A5B",
";+	c #6D6A68",
">+	c #424959",
",+	c #39495D",
"'+	c #58677D",
")+	c #828FA2",
"!+	c #C5D1E2",
"~+	c #4E4536",
"{+	c #4A4136",
"]+	c #574E3E",
"^+	c #4E4338",
"/+	c #3D382F",
"(+	c #3C352F",
"_+	c #4E493F",
":+	c #464039",
"<+	c #3B3831",
"[+	c #555248",
"}+	c #484238",
"|+	c #524F47",
"1+	c #423F3D",
"2+	c #53504C",
"3+	c #696358",
"4+	c #A99D8E",
"5+	c #6B6760",
"6+	c #516473",
"7+	c #797B74",
"8+	c #1F1E28",
"9+	c #635C59",
"0+	c #3E454C",
"a+	c #2D3A49",
"b+	c #354053",
"c+	c #535E71",
"d+	c #778092",
"e+	c #9CA6B7",
"f+	c #E7F3FF",
"g+	c #433B31",
"h+	c #4C4437",
"i+	c #494238",
"j+	c #3F392F",
"k+	c #332F29",
"l+	c #302D29",
"m+	c #555049",
"n+	c #4E4941",
"o+	c #666259",
"p+	c #6E6B63",
"q+	c #757168",
"r+	c #45443E",
"s+	c #4B4A48",
"t+	c #3A3938",
"u+	c #605F5D",
"v+	c #8E8C89",
"w+	c #A49389",
"x+	c #706B6C",
"y+	c #757880",
"z+	c #43444A",
"A+	c #212B35",
"B+	c #393E4C",
"C+	c #656B73",
"D+	c #61646F",
"E+	c #6F7784",
"F+	c #8A92A4",
"G+	c #C4D4E6",
"H+	c #6B665C",
"I+	c #3C352B",
"J+	c #3F372F",
"K+	c #35312B",
"L+	c #25231F",
"M+	c #262421",
"N+	c #20211E",
"O+	c #2E2C29",
"P+	c #2E2D29",
"Q+	c #312F2B",
"R+	c #282926",
"S+	c #43433F",
"T+	c #65625C",
"U+	c #484844",
"V+	c #595957",
"W+	c #3D403F",
"X+	c #424547",
"Y+	c #5C5E5F",
"Z+	c #817F7D",
"`+	c #938A80",
" @	c #857B75",
".@	c #363A3F",
"+@	c #343C43",
"@@	c #243240",
"#@	c #838F9C",
"$@	c #666D7C",
"%@	c #627185",
"&@	c #A2B6CA",
"*@	c #878277",
"=@	c #3E362D",
"-@	c #353029",
";@	c #2C2722",
">@	c #332E29",
",@	c #212220",
"'@	c #3A3731",
")@	c #312F2A",
"!@	c #2B2A26",
"~@	c #3E3C38",
"{@	c #53514A",
"]@	c #504B43",
"^@	c #494742",
"/@	c #4A4A48",
"(@	c #373837",
"_@	c #3D3D3C",
":@	c #515453",
"<@	c #444548",
"[@	c #515357",
"}@	c #898681",
"|@	c #6E6660",
"1@	c #626261",
"2@	c #646468",
"3@	c #334553",
"4@	c #6B7481",
"5@	c #6D747F",
"6@	c #A0AFBB",
"7@	c #91A9C1",
"8@	c #D9E9F5",
"9@	c #51493F",
"0@	c #7C7A70",
"a@	c #2D2720",
"b@	c #36312B",
"c@	c #282622",
"d@	c #292724",
"e@	c #252321",
"f@	c #403C34",
"g@	c #3F3B35",
"h@	c #47423B",
"i@	c #49453D",
"j@	c #47433C",
"k@	c #45423D",
"l@	c #454643",
"m@	c #252623",
"n@	c #3F3E3C",
"o@	c #2F2E30",
"p@	c #3F3F3E",
"q@	c #555554",
"r@	c #7A7771",
"s@	c #74706E",
"t@	c #988A7E",
"u@	c #5E5955",
"v@	c #82807C",
"w@	c #A7A5A5",
"x@	c #686F76",
"y@	c #A9AFB3",
"z@	c #686F78",
"A@	c #687582",
"B@	c #86929E",
"C@	c #E6E9EA",
"D@	c #322922",
"E@	c #7D7970",
"F@	c #3C3730",
"G@	c #2A2623",
"H@	c #292422",
"I@	c #282823",
"J@	c #272724",
"K@	c #322F2A",
"L@	c #48433C",
"M@	c #38352F",
"N@	c #51514C",
"O@	c #41403C",
"P@	c #393935",
"Q@	c #3B3C3C",
"R@	c #565650",
"S@	c #2D2E2D",
"T@	c #5A564E",
"U@	c #7A6F62",
"V@	c #7F776A",
"W@	c #6B625C",
"X@	c #534D4B",
"Y@	c #535252",
"Z@	c #90908D",
"`@	c #CFCDC8",
" #	c #696B6B",
".#	c #B7B7B8",
"+#	c #84898D",
"@#	c #61686F",
"##	c #8F918F",
"$#	c #5E5242",
"%#	c #443C32",
"&#	c #878279",
"*#	c #1C1815",
"=#	c #2C2824",
"-#	c #35302B",
";#	c #342F2B",
">#	c #464038",
",#	c #37342E",
"'#	c #46413A",
")#	c #4D4943",
"!#	c #534F46",
"~#	c #393832",
"{#	c #504D46",
"]#	c #4F4B42",
"^#	c #3C3935",
"/#	c #4F4942",
"(#	c #4E4946",
"_#	c #776E63",
":#	c #8E8479",
"<#	c #6E655B",
"[#	c #6B635D",
"}#	c #54504C",
"|#	c #8B837C",
"1#	c #D2CFCE",
"2#	c #7C7775",
"3#	c #A2A4A0",
"4#	c #C7CAC8",
"5#	c #5D5D5C",
"6#	c #797C79",
"7#	c #E1DAD0",
"8#	c #54483B",
"9#	c #42372F",
"0#	c #645E53",
"a#	c #47433F",
"b#	c #2D2923",
"c#	c #524A3F",
"d#	c #443C34",
"e#	c #4C463E",
"f#	c #494239",
"g#	c #443F37",
"h#	c #6A6559",
"i#	c #696157",
"j#	c #5F574F",
"k#	c #48443C",
"l#	c #645C50",
"m#	c #564E47",
"n#	c #776D60",
"o#	c #695E55",
"p#	c #71685D",
"q#	c #453E3D",
"r#	c #282424",
"s#	c #645C52",
"t#	c #827872",
"u#	c #B6AA9D",
"v#	c #CDD3D7",
"w#	c #B0A9A1",
"x#	c #C2C1BA",
"y#	c #B0AFA8",
"z#	c #7F796E",
"A#	c #DDD8C9",
"B#	c #5E5144",
"C#	c #4C4439",
"D#	c #312B23",
"E#	c #9E9588",
"F#	c #3A3129",
"G#	c #37312B",
"H#	c #3F3B33",
"I#	c #51483D",
"J#	c #645C4E",
"K#	c #675E52",
"L#	c #756D5F",
"M#	c #766B5B",
"N#	c #61584C",
"O#	c #5D544A",
"P#	c #4A433B",
"Q#	c #716553",
"R#	c #8A7D6C",
"S#	c #64594D",
"T#	c #817468",
"U#	c #2F2624",
"V#	c #574D45",
"W#	c #65594B",
"X#	c #665953",
"Y#	c #9B9082",
"Z#	c #CFC1B5",
"`#	c #A1A4AC",
" $	c #807873",
".$	c #E4E0DA",
"+$	c #D1C8B7",
"@$	c #BDB6A9",
"#$	c #E1DCCA",
"$$	c #42392E",
"%$	c #3B342C",
"&$	c #39322A",
"*$	c #594F44",
"=$	c #938A79",
"-$	c #4A4034",
";$	c #5D5146",
">$	c #63594C",
",$	c #746A5A",
"'$	c #4E453C",
")$	c #635B4F",
"!$	c #8E8574",
"~$	c #7C7261",
"{$	c #7F7161",
"]$	c #5D5547",
"^$	c #A69580",
"/$	c #8A7C69",
"($	c #978774",
"_$	c #807566",
":$	c #322723",
"<$	c #5D5145",
"[$	c #2F2824",
"}$	c #706158",
"|$	c #6D5C4F",
"1$	c #C0AC9A",
"2$	c #C9C0B8",
"3$	c #5F5C62",
"4$	c #645450",
"5$	c #DAD5CB",
"6$	c #FFFBED",
"7$	c #AC9D83",
"8$	c #CCCABC",
"9$	c #564A3E",
"0$	c #4B4338",
"a$	c #5D5245",
"b$	c #5D5041",
"c$	c #978B78",
"d$	c #635A4E",
"e$	c #534B3E",
"f$	c #574B41",
"g$	c #665D51",
"h$	c #736B5C",
"i$	c #867A67",
"j$	c #5D5449",
"k$	c #5F5648",
"l$	c #726757",
"m$	c #807363",
"n$	c #7B6E5C",
"o$	c #91816D",
"p$	c #736658",
"q$	c #61574D",
"r$	c #493E34",
"s$	c #463A31",
"t$	c #776757",
"u$	c #5D4E46",
"v$	c #9F8E79",
"w$	c #DBC9B7",
"x$	c #C2BCBB",
"y$	c #26242B",
"z$	c #594541",
"A$	c #B7A996",
"B$	c #F9F0DB",
"C$	c #FCFDF8",
"D$	c #FAF9EF",
"E$	c #887F72",
"F$	c #5F5141",
"G$	c #6F6250",
"H$	c #685C4D",
"I$	c #514638",
"J$	c #B4A992",
"K$	c #53483D",
"L$	c #645A4C",
"M$	c #5B5045",
"N$	c #5D5248",
"O$	c #7C7260",
"P$	c #786D5B",
"Q$	c #7F7360",
"R$	c #7D7261",
"S$	c #9C917E",
"T$	c #9C8C7B",
"U$	c #6F665B",
"V$	c #686258",
"W$	c #59493C",
"X$	c #7D6C58",
"Y$	c #84776C",
"Z$	c #8D7C6B",
"`$	c #AF9B87",
" %	c #D4C3AD",
".%	c #8D7877",
"+%	c #2F181A",
"@%	c #725F5C",
"#%	c #BAA38D",
"$%	c #FDF3DA",
"%%	c #786D59",
"&%	c #9F9684",
"*%	c #70604D",
"=%	c #5F5343",
"-%	c #665A4B",
";%	c #594F40",
">%	c #C6BCA4",
",%	c #55473D",
"'%	c #5F5349",
")%	c #8A7E6A",
"!%	c #847A67",
"~%	c #847566",
"{%	c #AA9C84",
"]%	c #7E7464",
"^%	c #BAAB95",
"/%	c #AC9E88",
"(%	c #7D6F5E",
"_%	c #5A4F42",
":%	c #7E746A",
"<%	c #95836B",
"[%	c #94877C",
"}%	c #786553",
"|%	c #AC9A85",
"1%	c #A6937F",
"2%	c #B4A8A4",
"3%	c #4C3936",
"4%	c #8F8785",
"5%	c #D7C2B0",
"6%	c #E9D8B5",
"7%	c #FFFFFD",
"8%	c #8F7E66",
"9%	c #82715C",
"0%	c #A39A87",
"a%	c #786957",
"b%	c #6C5F4E",
"c%	c #8B7F6B",
"d%	c #625446",
"e%	c #ACA28E",
"f%	c #827563",
"g%	c #857766",
"h%	c #827766",
"i%	c #988972",
"j%	c #A29481",
"k%	c #9F927F",
"l%	c #BFB198",
"m%	c #AB9D8B",
"n%	c #635546",
"o%	c #B8AEA1",
"p%	c #84725C",
"q%	c #756555",
"r%	c #9F927E",
"s%	c #9D8C77",
"t%	c #A59686",
"u%	c #9E8F84",
"v%	c #75665E",
"w%	c #433130",
"x%	c #402D2C",
"y%	c #A07F6E",
"z%	c #FFFFE2",
"A%	c #F8F9F7",
"B%	c #F4F6EB",
"C%	c #99896F",
"D%	c #A29278",
"E%	c #756352",
"F%	c #9F9381",
"G%	c #B0A893",
"H%	c #7B6C5B",
"I%	c #786655",
"J%	c #968674",
"K%	c #BBB19C",
"L%	c #837566",
"M%	c #877A68",
"N%	c #A99783",
"O%	c #8F806F",
"P%	c #B6AA94",
"Q%	c #B1A48F",
"R%	c #5D4C3D",
"S%	c #948C81",
"T%	c #A09484",
"U%	c #736555",
"V%	c #807060",
"W%	c #C3B79D",
"X%	c #81715E",
"Y%	c #83776F",
"Z%	c #7F6E66",
"`%	c #503A3A",
" &	c #67534F",
".&	c #65544D",
"+&	c #907668",
"@&	c #FFFCED",
"#&	c #F4F5F3",
"$&	c #DFE5DA",
"%&	c #B4A88D",
"&&	c #978974",
"*&	c #9B8B76",
"=&	c #9C8A73",
"-&	c #8C7A67",
";&	c #A59A86",
">&	c #A9A08D",
",&	c #B7AE99",
"'&	c #9E907F",
")&	c #A2927F",
"!&	c #AB9C85",
"~&	c #7F7262",
"{&	c #7C6959",
"]&	c #83715E",
"^&	c #6E5D4C",
"/&	c #ACA798",
"(&	c #C9C0B2",
"_&	c #726253",
":&	c #8C7E66",
"<&	c #7B6C5A",
"[&	c #948674",
"}&	c #463A32",
"|&	c #83756A",
"1&	c #635148",
"2&	c #443130",
"3&	c #594641",
"4&	c #6C584C",
"5&	c #947763",
"6&	c #8A9685",
"7&	c #A99A82",
"8&	c #988673",
"9&	c #AE9E84",
"0&	c #A9977F",
"a&	c #9F8F79",
"b&	c #8E7D6B",
"c&	c #91806E",
"d&	c #BDAF97",
"e&	c #A59885",
"f&	c #B8AF9D",
"g&	c #7B736C",
"h&	c #AAA193",
"i&	c #CEC7B4",
"j&	c #A69D90",
"k&	c #9D9286",
"l&	c #BCB1A1",
"m&	c #756556",
"n&	c #978972",
"o&	c #7D6E5E",
"p&	c #82705E",
"q&	c #90826F",
"r&	c #3F2C29",
"s&	c #A08D7B",
"t&	c #422E2E",
"u&	c #735F4F",
"v&	c #6C5B54",
"w&	c #897567",
"x&	c #C7AD8D",
"y&	c #F0F2F2",
"z&	c #FDFCFE",
"A&	c #B7C1B0",
"B&	c #9E8D75",
"C&	c #B8A88F",
"D&	c #BAA990",
"E&	c #AF9F87",
"F&	c #AB9983",
"G&	c #A89783",
"H&	c #A79780",
"I&	c #BFB097",
"J&	c #A2917C",
"K&	c #8A7866",
"L&	c #796656",
"M&	c #796857",
"N&	c #82715E",
"O&	c #705E4D",
"P&	c #948577",
"Q&	c #726151",
"R&	c #9A8D79",
"S&	c #988A74",
"T&	c #635345",
"U&	c #9A8973",
"V&	c #908372",
"W&	c #5B473F",
"X&	c #7D6857",
"Y&	c #7F6F5F",
"Z&	c #816C5C",
"`&	c #745F51",
" *	c #9B836A",
".*	c #FFEDCD",
"+*	c #424E4A",
"@*	c #959D98",
"#*	c #B2A38B",
"$*	c #C5B59E",
"%*	c #AF9E86",
"&*	c #AF9C85",
"**	c #C0AF97",
"=*	c #AC9C83",
"-*	c #AF9F88",
";*	c #B2A38C",
">*	c #9E907B",
",*	c #857664",
"'*	c #796957",
")*	c #796755",
"!*	c #746352",
"~*	c #877967",
"{*	c #958476",
"]*	c #9B907F",
"^*	c #7E6D56",
"/*	c #988C7F",
"(*	c #7E7160",
"_*	c #B0A18B",
":*	c #938571",
"<*	c #705E51",
"[*	c #98876E",
"}*	c #867563",
"|*	c #95806C",
"1*	c #8F7B6B",
"2*	c #DBBF8F",
"3*	c #5D6E6F",
"4*	c #AE9E86",
"5*	c #B2A088",
"6*	c #AA9A83",
"7*	c #CDBEA3",
"8*	c #B8A890",
"9*	c #B3A38A",
"0*	c #B3A38B",
"a*	c #CBBEA3",
"b*	c #8F7E68",
"c*	c #7D6C59",
"d*	c #867562",
"e*	c #877665",
"f*	c #968875",
"g*	c #AD9E8B",
"h*	c #9F967F",
"i*	c #867561",
"j*	c #BAB4A4",
"k*	c #6C5A48",
"l*	c #887865",
"m*	c #9C8E78",
"n*	c #A6957E",
"o*	c #84705C",
"p*	c #9B8871",
"q*	c #9C8B72",
"r*	c #C4AB8B",
"s*	c #FFFFD3",
"t*	c #BDC6C7",
"u*	c #B9AA92",
"v*	c #BAA790",
"w*	c #C2B499",
"x*	c #B8A68C",
"y*	c #C7B79D",
"z*	c #CCBEA2",
"A*	c #B9A98F",
"B*	c #C3B298",
"C*	c #93836C",
"D*	c #9D8C75",
"E*	c #796754",
"F*	c #A89D87",
"G*	c #A89B87",
"H*	c #85765F",
"I*	c #A79985",
"J*	c #A4947A",
"K*	c #9B8E7E",
"L*	c #756454",
"M*	c #948671",
"N*	c #A2937F",
"O*	c #C0B393",
"P*	c #86725E",
"Q*	c #AA987E",
"R*	c #B6A489",
"S*	c #CEB795",
"T*	c #FFFACD",
"U*	c #B9A991",
"V*	c #B6A38A",
"W*	c #B4A086",
"X*	c #D1C2A9",
"Y*	c #CABB9D",
"Z*	c #D6C8AD",
"`*	c #CCBB9F",
" =	c #B5A489",
".=	c #97866C",
"+=	c #CCC2AB",
"@=	c #A29580",
"#=	c #7B6950",
"$=	c #DCD6BB",
"%=	c #6A543A",
"&=	c #DBD8C6",
"*=	c #735C44",
"==	c #83715C",
"-=	c #A69682",
";=	c #C2B596",
">=	c #C7BDA3",
",=	c #A9957B",
"'=	c #CEBB9F",
")=	c #D6C29E",
"!=	c #FFFCD2",
"~=	c #DBCDB4",
"{=	c #E2DABA",
"]=	c #BFAF99",
"^=	c #B8A590",
"/=	c #C5B49B",
"(=	c #CFBFA6",
"_=	c #DCCCB4",
":=	c #D9CCB0",
"<=	c #E0D4BB",
"[=	c #C2B398",
"}=	c #CBBBA1",
"|=	c #E1D9C2",
"1=	c #B7AA94",
"2=	c #8D7A60",
"3=	c #DAD2BC",
"4=	c #D0C6B3",
"5=	c #88735C",
"6=	c #A19078",
"7=	c #B1A186",
"8=	c #A9947A",
"9=	c #DDD2B5",
"0=	c #C2B59C",
"a=	c #C8BCA0",
"b=	c #D1C2A8",
"c=	c #E2D6BE",
"d=	c #C7B89F",
"e=	c #E1DCCC",
"f=	c #F7F3E5",
"g=	c #BDAB95",
"h=	c #BEAA93",
"i=	c #E2D4BB",
"j=	c #D2C2AA",
"k=	c #CBBAA4",
"l=	c #E0D0B8",
"m=	c #C9B89C",
"n=	c #E6DAC0",
"o=	c #F0E9D6",
"p=	c #E1D6BD",
"q=	c #D0C3AA",
"r=	c #E1D8C2",
"s=	c #AEA089",
"t=	c #AA987C",
"u=	c #E3DBC8",
"v=	c #B6A588",
"w=	c #C0AF91",
"x=	c #DACBAD",
"y=	c #B8A78C",
"z=	c #E4D7BD",
"A=	c #D3C8AC",
"B=	c #CEC2A8",
"C=	c #CDC2AC",
"D=	c #DBD3C1",
"E=	c #D1CBBD",
"F=	c #DBD3BA",
"G=	c #FFFEF9",
"  . + @ # $ % & * = - ; > , ' ) ! ~ { ] ^ / ( _ : : : : : : : : ",
"< [ } | 1 2 3 4 5 6 7 8 9 0 a b c d e f g h i j k : : : : : : : ",
"l m n o p q r s t u v w x y z A B C D E F G H I J : : : : : : : ",
"K 3 o L o M N O P Q R S T U V W X Y Z `  ...+.@.#.$.: : : : : : ",
"%.&.*.=.-.;.>.,.'.).!.~.{.].^./.(._.:.<.[.}.|.1.2.3.: : : : : : ",
"4.5.*.6.7.8.9.0.a.b.c.d.e.f.g.h.i.j.k.l.m.n.o.p.q.r.: : : : : : ",
"s.t.u.v.w.x.y.z.A.B.C.D.E.F.G.G.H.I.J.K.L.M.N.O.P.Q.R.: : : : : ",
"S.T.U.V.*.W.X.Y.Z.`. +.+++@+#+$+%+&+*+=+-+;+>+,+'+)+!+: : : : : ",
"~+{+]+^+/+(+_+:+<+[+}+|+1+2+3+4+5+6+7+8+9+0+a+b+c+d+e+f+: : : : ",
"g+h+i+}+j+k+l+m+n+o+p+q+r+s+t+u+v+w+x+y+z+A+B+C+D+E+F+G+: : : : ",
"H+I+J+K+L+M+N+O+P+Q+R+S+T+U+V+W+X+Y+Z+`+ @.@+@@@#@$@%@&@: : : : ",
"*@=@-@;@>@,@'@)@!@~@{@5+]@^@/@(@_@:@<@[@}@|@1@2@3@4@5@6@7@8@: : ",
"9@0@a@b@c@d@e@f@g@h@i@j@k@l@m@n@o@p@q@r@s@t@u@v@w@x@y@z@A@B@C@: ",
"D@E@F@G@H@I@J@K@'@L@M@`.N@O@P@Q@R@S@T@U@V@W@X@Y@Z@`@ #.#+#@###: ",
"$#%#&#*#=#-#;#>#P ,#'#)#!#~#{#]#^#/#(#_#:#<#[#}#|#1#2#3#4#5#6#7#",
"8#9#0#a#b#K+c#d#e#f#i+g#h#i#j#k#l#m#n#o#p#q#r#s#t#u#v#w#x#y#z#A#",
"B#C#D#E#F#g+G#H#I#J#K#L#M#N#O#P#Q#R#S#T#U#V#W#X#Y#Z#`# $.$+$@$#$",
"$$%$&$*$=$-$;$>$,$'$)$!$~${$]$^$/$($_$:$<$[$}$|$1$2$3$4$5$6$7$8$",
"9$0$a$b$c$d$e$f$g$h$i$j$k$l$m$n$o$p$q$r$s$t$u$v$w$x$y$z$A$B$C$D$",
"E$F$G$H$I$J$K$L$M$p$N$O$P$Q$R$S$T$U$V$W$X$Y$Z$`$ %.%+%@%#%$%: : ",
"%%&%*%=%-%;%>%,%'%)%!%~%{%]%^%/%(%_%:%<%[%}%|%1%2%3%4%5%6%7%: : ",
"8%9%0%a%b%c%d%e%f%g%h%i%j%k%l%m%n%o%p%q%r%s%t%u%v%w%x%y%z%: A%B%",
"C%D%E%F%G%H%I%J%K%L%M%N%O%P%Q%R%S%T%U%V%W%X%Y%Z%`% &.&+&@&: #&$&",
"%&&&*&=&-&;&>&,&'&)&!&~&{&]&^&/&(&_&:&<&[&}&|&1&2&3&4&5&: : : 6&",
"7&8&9&0&a&b&c&d&e&f&g&h&i&j&k&l&m&n&o&p&q&r&s&t&u&v&w&x&: y&z&A&",
"B&C&D&E&F&G&H&I&J&K&L&M&N&O&P&Q&R&S&T&U&V&W&X&Y&Z&`& *.*: : +*@*",
"#*$*%*&***=*-*;*>*,*'*)*!*~*{*]*^*/*(*_*:*<*[*}*|*1*2*: : : : 3*",
"4*5*6*7*8*9*0*a*b*c*d*e*f*g*h*i*j*k*l*m*n*o*p*q*=&r*s*: : : : t*",
"u*v*w*x*y*z*A*B*C*D*E*F*G*H*I*J*K*L*M*N*O*P*Q*R*S*T*: : : : : : ",
"U*V*W*X*Y*Z*`*Q* =.=+=@=#=$=%=&=*===-=;=>=,='=)=!=~={=: : : : : ",
"]=^=/=(=_=:=<=[=}=|=1=2=3=q*4=5=6=7=8=9=0=a=b=c=d=e=f=: : : : : ",
"g=h=i=j=k=l=m=n=o=p=q=r=s=t=u=v=w=x=y=z=A=B=C=D=E=F=G=: : : : : "};
